<svg width="49" height="49" viewBox="0 0 49 49" fill="none" xmlns="http://www.w3.org/2000/svg">
<path d="M49 10.6847V44.9167C49 46.0056 48.5917 46.9583 47.775 47.775C46.9583 48.5917 46.0056 49 44.9167 49H4.08333C2.99444 49 2.04167 48.5917 1.225 47.775C0.408333 46.9583 0 46.0056 0 44.9167V4.08333C0 2.99444 0.408333 2.04167 1.225 1.225C2.04167 0.408333 2.99444 0 4.08333 0H38.3153L49 10.6847ZM44.9167 12.5222L36.4778 4.08333H4.08333V44.9167H44.9167V12.5222ZM24.4837 40.4931C26.4455 40.4931 28.1183 39.8066 29.5021 38.4337C30.8859 37.0603 31.5778 35.393 31.5778 33.4316C31.5778 31.4698 30.8913 29.797 29.5184 28.4132C28.1451 27.0294 26.4777 26.3375 24.5163 26.3375C22.5545 26.3375 20.8817 27.024 19.4979 28.3969C18.1141 29.7702 17.4222 31.4376 17.4222 33.3989C17.4222 35.3608 18.1087 37.0336 19.4816 38.4174C20.8549 39.8012 22.5223 40.4931 24.4837 40.4931ZM7.69028 17.4222H32.0542V7.69028H7.69028V17.4222ZM4.08333 12.5222V44.9167V4.08333V12.5222Z" fill="#D9D9D9"/>
</svg>
